<svg width="12" height="12" viewBox="0 0 12 12" fill="none" xmlns="http://www.w3.org/2000/svg">
<path d="M4.82099 4.1894C4.73854 4.36344 4.5923 4.4991 4.41256 4.56826L2.64256 5.24883C2.52589 5.29365 2.42227 5.36691 2.34111 5.46196C2.25996 5.55701 2.20384 5.67083 2.17787 5.79309C2.15189 5.91534 2.15688 6.04215 2.19238 6.16198C2.22788 6.28182 2.29276 6.39088 2.38113 6.47926L3.72385 7.82155L1.28528 10.2601L1 11L1.73956 10.7144L4.17813 8.27583L5.52042 9.61812C5.60881 9.70639 5.71784 9.77119 5.83762 9.80663C5.95741 9.84207 6.08415 9.84703 6.20634 9.82106C6.32852 9.79509 6.44229 9.73901 6.53731 9.65792C6.63232 9.57682 6.70558 9.47328 6.75042 9.35669L7.43142 7.58669C7.50042 7.40712 7.63628 7.26098 7.81028 7.17826L4.82099 4.1894Z" fill="white"/>
<path d="M8.15913 1.49069C6.76113 0.0927958 6.33391 0.99502 5.92454 1.85955L5.91513 1.8794L10.1203 6.08412C10.9907 5.67183 12.1304 5.46176 10.509 3.84055L8.15913 1.49069Z" fill="white"/>
<path d="M4.82099 4.1894L7.81028 7.17826L10.1203 6.08412L5.91513 1.8794L4.82099 4.1894Z" fill="white"/>
</svg>
