<svg width="32" height="32" viewBox="0 0 32 32" fill="none" xmlns="http://www.w3.org/2000/svg">
<path d="M23.2759 5.02703C24.8621 5.83784 29.6207 5.02703 29.6207 5.02703L32 22.4595C32 22.4595 26.4483 23.6757 20.5 22.4595C14.5517 21.2432 9 22.4595 9 22.4595L11.3793 5.02703C11.3793 5.02703 12.9655 3 16.931 3C20.8966 3 21.6897 4.21622 23.2759 5.02703Z" fill="#355764"/>
<path d="M21.8966 4.02703C23.5517 4.83784 28.5172 4.02703 28.5172 4.02703L31 21.4595C31 21.4595 25.2069 22.6757 19 21.4595C12.7931 20.2432 7 21.4595 7 21.4595L9.48276 4.02703C9.48276 4.02703 11.1379 2 15.2759 2C19.4138 2 20.2414 3.21622 21.8966 4.02703Z" fill="url(#paint0_radial_7141_3018)"/>
<path d="M28 17L27.2258 12.125M21.8065 6.03125C21.8065 6.03125 19.4839 4 16 4M21.8065 6.03125H24.129M21.8065 6.03125L21.6129 8.0625M21.4194 10.0938L21.6129 8.0625M24.129 6.03125H26.4516L26.8387 10.0938M24.129 6.03125V8.0625M24.5161 12.125V16.5938M24.5161 12.125H27.2258M24.5161 12.125L24.3226 10.0938M27.2258 12.125L26.8387 10.0938M21.6129 8.0625H24.129M24.129 8.0625L24.3226 10.0938M24.3226 10.0938H26.8387" stroke="url(#paint1_linear_7141_3018)" stroke-opacity="0.75"/>
<path d="M21.9631 12.1229C21.9857 11.9184 22 11.7111 22 11.5002C22 11.2893 21.9857 11.0819 21.9627 10.8771L20.3923 10.3186C20.3141 10.0617 20.2115 9.81637 20.0874 9.58321L20.8019 8.07947C20.5419 7.75335 20.2461 7.45736 19.9202 7.19703L18.4166 7.91303C18.1822 7.78722 17.9358 7.68508 17.6812 7.60812L17.1231 6.03767C16.9182 6.01471 16.7109 6 16.5 6C16.2891 6 16.0818 6.01435 15.8769 6.03767L15.3188 7.60812C15.062 7.68596 14.8166 7.7882 14.5834 7.91303L13.0794 7.19703C12.753 7.4571 12.4574 7.75304 12.197 8.07947L12.913 9.58249C12.7881 9.81565 12.6859 10.0614 12.6081 10.3179L11.0377 10.8774C11.0147 11.0819 11 11.29 11 11.5005C11 11.7111 11.0143 11.9184 11.0377 12.1233L12.6081 12.6821C12.6859 12.9386 12.7881 13.1843 12.913 13.4175L12.1974 14.9212C12.4574 15.2477 12.7533 15.5429 13.0798 15.803L14.5824 15.0873C14.8155 15.2122 15.0612 15.3148 15.3177 15.393L15.8766 16.9631C16.081 16.9857 16.2884 17 16.4996 17C16.7106 17 16.9175 16.9857 17.1224 16.9627L17.6812 15.3922C17.9377 15.314 18.1834 15.2114 18.4166 15.0873L19.9202 15.8019C20.2467 15.5418 20.5419 15.2459 20.8019 14.9202L20.087 13.4168C20.2119 13.1847 20.3145 12.9383 20.3926 12.6814L21.9627 12.1229H21.9631ZM16.5 13.2471C16.2705 13.2472 16.0433 13.202 15.8313 13.1143C15.6193 13.0265 15.4267 12.8978 15.2644 12.7356C14.9367 12.408 14.7525 11.9636 14.7524 11.5002C14.7523 11.0368 14.9363 10.5923 15.2639 10.2645C15.5915 9.9368 16.0359 9.75261 16.4993 9.75252C16.9627 9.75242 17.4071 9.93642 17.7349 10.264C18.0626 10.5917 18.2468 11.036 18.2469 11.4995C18.247 11.9629 18.063 12.4073 17.7354 12.7351C17.4078 13.0628 16.9634 13.247 16.5 13.2471Z" fill="black" fill-opacity="0.25"/>
<path d="M20.9631 11.1229C20.9857 10.9184 21 10.7111 21 10.5002C21 10.2893 20.9857 10.0819 20.9627 9.87709L19.3923 9.31857C19.3141 9.06173 19.2115 8.81637 19.0874 8.58321L19.8019 7.07947C19.5419 6.75335 19.2461 6.45736 18.9202 6.19703L17.4166 6.91303C17.1822 6.78722 16.9358 6.68508 16.6812 6.60812L16.1231 5.03767C15.9182 5.01471 15.7109 5 15.5 5C15.2891 5 15.0818 5.01435 14.8769 5.03767L14.3188 6.60812C14.062 6.68596 13.8166 6.7882 13.5834 6.91303L12.0794 6.19703C11.753 6.4571 11.4574 6.75304 11.197 7.07947L11.913 8.58249C11.7881 8.81565 11.6859 9.06137 11.6081 9.31785L10.0377 9.87745C10.0147 10.0819 10 10.29 10 10.5005C10 10.7111 10.0143 10.9184 10.0377 11.1233L11.6081 11.6821C11.6859 11.9386 11.7881 12.1843 11.913 12.4175L11.1974 13.9212C11.4574 14.2477 11.7533 14.5429 12.0798 14.803L13.5824 14.0873C13.8155 14.2122 14.0612 14.3148 14.3177 14.393L14.8766 15.9631C15.081 15.9857 15.2884 16 15.4996 16C15.7106 16 15.9175 15.9857 16.1224 15.9627L16.6812 14.3922C16.9377 14.314 17.1834 14.2114 17.4166 14.0873L18.9202 14.8019C19.2467 14.5418 19.5419 14.2459 19.8019 13.9202L19.087 12.4168C19.2119 12.1847 19.3145 11.9383 19.3926 11.6814L20.9627 11.1229H20.9631ZM15.5 12.2471C15.2705 12.2472 15.0433 12.202 14.8313 12.1143C14.6193 12.0265 14.4267 11.8978 14.2644 11.7356C13.9367 11.408 13.7525 10.9636 13.7524 10.5002C13.7523 10.0368 13.9363 9.5923 14.2639 9.26455C14.5915 8.9368 15.0359 8.75261 15.4993 8.75252C15.9627 8.75242 16.4071 8.93642 16.7349 9.26404C17.0626 9.59165 17.2468 10.036 17.2469 10.4995C17.247 10.9629 17.063 11.4073 16.7354 11.7351C16.4078 12.0628 15.9634 12.247 15.5 12.2471Z" fill="url(#paint2_radial_7141_3018)"/>
<path d="M19.0588 20.0909L17 21.7273L17.8235 16L22.7647 17.6364L21.1176 18.8636L24 24.1818L22.7647 25L19.0588 20.0909Z" fill="black" fill-opacity="0.25"/>
<path d="M19.0588 19.0909L17 20.7273L17.8235 15L22.7647 16.6364L21.1176 17.8636L24 23.1818L22.7647 24L19.0588 19.0909Z" fill="url(#paint3_linear_7141_3018)"/>
<path d="M11.6319 21.8896L13.5697 22.8584L6.69238 27L7.75717 19.4679L9.69446 20.9209L13.5693 16.0775L14.7829 16.8866L11.6319 21.8896Z" fill="black" fill-opacity="0.25"/>
<path d="M11.4532 20.7573L13.391 21.7261L6.51367 25.8677L7.57846 18.3356L9.51575 19.7886L13.3906 14.9451L14.6042 15.7542L11.4532 20.7573Z" fill="url(#paint4_linear_7141_3018)"/>
<defs>
<radialGradient id="paint0_radial_7141_3018" cx="0" cy="0" r="1" gradientUnits="userSpaceOnUse" gradientTransform="translate(4.10345 5.64865) rotate(-10.17) scale(29.8483 34.4254)">
<stop stop-color="#45879F"/>
<stop offset="0.162546" stop-color="#9FCBDB"/>
<stop offset="0.590602" stop-color="#2C647A"/>
<stop offset="1" stop-color="#1B2B32"/>
</radialGradient>
<linearGradient id="paint1_linear_7141_3018" x1="10.1935" y1="4.40625" x2="28.7926" y2="6.25231" gradientUnits="userSpaceOnUse">
<stop stop-color="#417388"/>
<stop offset="0.0677083" stop-color="#A6CEDF"/>
<stop offset="0.645833" stop-color="#CFE3EB"/>
<stop offset="1" stop-color="#C4DBE6"/>
</linearGradient>
<radialGradient id="paint2_radial_7141_3018" cx="0" cy="0" r="1" gradientUnits="userSpaceOnUse" gradientTransform="translate(9.7606 4.76079) rotate(45.0009) scale(16.2333 16.2339)">
<stop stop-color="white"/>
<stop offset="0.520833" stop-color="#F0F0F0"/>
<stop offset="0.9999" stop-color="#B1B1B1"/>
</radialGradient>
<linearGradient id="paint3_linear_7141_3018" x1="17.8235" y1="15" x2="23.1791" y2="24.2372" gradientUnits="userSpaceOnUse">
<stop offset="0.553902" stop-color="#E9E9E9"/>
<stop offset="1" stop-color="#898989"/>
</linearGradient>
<linearGradient id="paint4_linear_7141_3018" x1="14.1999" y1="15.3497" x2="6.51367" y2="25.8677" gradientUnits="userSpaceOnUse">
<stop offset="0.46875" stop-color="#E9E9E9"/>
<stop offset="0.92924" stop-color="#898989"/>
</linearGradient>
</defs>
</svg>
