<svg width="16" height="16" viewBox="0 0 16 16" fill="none" xmlns="http://www.w3.org/2000/svg">
<path d="M8.49953 5.52314C8.67041 4.27878 9.11369 3.0943 9.79363 2.0648C9.79363 2.0648 9.79363 2.13239 9.79363 2.16618C9.79363 2.47689 9.90989 2.77489 10.1167 2.9946C10.3237 3.2143 10.6043 3.33774 10.8968 3.33774C11.1894 3.33774 11.47 3.2143 11.6769 2.9946C11.8838 2.77489 12 2.47689 12 2.16618C12.0004 1.95505 11.9449 1.74805 11.8399 1.56879C11.7349 1.38953 11.5845 1.24522 11.406 1.15233H11.3105C10.7828 0.949223 10.2047 0.949223 9.67695 1.15233C7.95855 1.65926 7.29027 4.3178 7.29027 4.3178L7.09934 4.45297H3.91707L3.65189 5.57947H6.96144L5.90068 11.5499C5.73463 12.2215 5.39216 12.8292 4.91322 13.3019C4.43428 13.7747 3.83863 14.0929 3.19576 14.2197C3.26101 14.0678 3.29362 13.9023 3.29123 13.7353C3.29123 13.4127 3.17054 13.1033 2.95569 12.875C2.74085 12.6469 2.44946 12.5187 2.14561 12.5187C1.84178 12.5187 1.55039 12.6469 1.33555 12.875C1.1207 13.1033 1 13.4127 1 13.7353C1.0118 14.0114 1.11339 14.2746 1.28749 14.4801C1.46159 14.6854 1.69738 14.8204 1.95468 14.8618C6.57957 15.8081 7.25845 11.5837 7.25845 11.5837L8.3192 6.63839H11.5014L11.7666 5.51189H8.41467L8.49953 5.52314Z" fill="white"/>
<path d="M10.5149 10.1213L10.7072 10.8904L10.5428 11.1096L10.4851 10.8787L9.98507 8.87873L9.89039 8.5H10.1096L10.5149 10.1213ZM10.9851 11.8787L10.7928 11.1096L10.9572 10.8904L11.0149 11.1213L11.5149 13.1213L11.6096 13.5H11.3904L10.9851 11.8787Z" stroke="white"/>
</svg>
