<svg width="16" height="16" viewBox="0 0 16 16" fill="none" xmlns="http://www.w3.org/2000/svg">
<path d="M12.8174 5.5401L10.46 3.18277L11.874 1.76877C11.9359 1.70678 12.0095 1.65761 12.0904 1.62406C12.1713 1.59051 12.2581 1.57324 12.3457 1.57324C12.4333 1.57324 12.52 1.59051 12.601 1.62406C12.6819 1.65761 12.7554 1.70678 12.8174 1.76877L14.2314 3.18277C14.2933 3.24468 14.3425 3.31821 14.3761 3.39914C14.4096 3.48007 14.4269 3.56682 14.4269 3.65443C14.4269 3.74204 14.4096 3.8288 14.3761 3.90973C14.3425 3.99066 14.2933 4.06418 14.2314 4.1261L12.8174 5.5401Z" fill="white"/>
<path d="M2.44335 11.1968L9.51602 4.12668L11.874 6.48402L4.67477 13.5534H2.24902L2.44335 11.1968Z" fill="white"/>
</svg>
