<svg width="16" height="16" viewBox="0 0 16 16" fill="none" xmlns="http://www.w3.org/2000/svg">
<path fill-rule="evenodd" clip-rule="evenodd" d="M16 12.8333C16 12.8333 15.4091 14 13.0455 14C10.6818 14 10.0909 10.5 6.54545 10.5C5.80196 10.5582 5.0859 10.8031 4.46534 11.2116C3.84478 11.6199 3.34034 12.1783 3 12.8333C3 12.8333 3 3.18182 3 2.54545C3 1.90909 4.08333 0.894943 4.625 0.538462C5.24556 0.130058 5.80196 0.0581583 6.54545 0C10.0909 0 10.6818 3.5 13.0455 3.5C15.4091 3.5 16 2.33333 16 2.33333V12.8333Z" fill="white"/>
<path d="M2 2H1V16H2V2Z" fill="white"/>
</svg>
