<svg width="18" height="12" viewBox="0 0 18 12" fill="none" xmlns="http://www.w3.org/2000/svg">
<path fill-rule="evenodd" clip-rule="evenodd" d="M7 2C2.69231 2 0 6 0 6C0 6 2.69231 10 7 10C11.3077 10 14 6 14 6C14 6 11.3077 2 7 2ZM7 9.45455C6.09554 9.45455 5.22812 9.09062 4.58858 8.44276C3.94903 7.79491 3.58974 6.91622 3.58974 6C3.58974 5.0838 3.94903 4.20511 4.58858 3.55727C5.22812 2.90941 6.09554 2.54545 7 2.54545C7.90447 2.54545 8.7719 2.90941 9.41145 3.55727C10.051 4.20511 10.4103 5.0838 10.4103 6C10.4103 6.91622 10.051 7.79491 9.41145 8.44276C8.7719 9.09062 7.90447 9.45455 7 9.45455Z" fill="white"/>
<path fill-rule="evenodd" clip-rule="evenodd" d="M6 4C6.26522 4 6.51958 4.10543 6.70712 4.29297C6.89466 4.48051 7 4.73478 7 5C7 5.26522 6.89466 5.51958 6.70712 5.70712C6.51958 5.89466 6.26522 6 6 6C5.73478 6 5.48042 5.89466 5.29288 5.70712C5.10534 5.51958 5 5.26522 5 5C5 4.73478 5.10534 4.48051 5.29288 4.29297C5.48042 4.10543 5.73478 4 6 4Z" fill="white"/>
</svg>
