<svg width="11" height="11" viewBox="0 0 11 11" fill="none" xmlns="http://www.w3.org/2000/svg">
<path d="M-4.48227e-05 0.423077V10.5769C-4.48227e-05 10.9464 0.999955 11 0.999955 11H5.5C6 11 10.9998 6.34615 11 5.92308C11.0001 5.59263 11 5.5 11 5.07692C11 4.65385 6 -2.2191e-06 5.5 0L0.499955 0C0.499955 0 -4.48227e-05 0.189418 -4.48227e-05 0.423077Z" fill="white" fill-opacity="0.8"/>
<path d="M5.59481 10.3884C5.51788 10.4418 5.46031 10.478 5.4207 10.5H5.41676H5.41211H5.40739H5.4026H5.39773H5.3928H5.38779H5.38272H5.37757H5.37235H5.36706H5.36171H5.35628H5.35079H5.34523H5.3396H5.3339H5.32813H5.3223H5.3164H5.31044H5.3044H5.29831H5.29215H5.28592H5.27963H5.27327H5.26685H5.26036H5.25382H5.24721H5.24053H5.2338H5.227H5.22014H5.21322H5.20624H5.19919H5.19209H5.18493H5.17771H5.17042H5.16308H5.15568H5.14823H5.14071H5.13314H5.12551H5.11782H5.11008H5.10228H5.09442H5.08651H5.07854H5.07052H5.06244H5.05431H5.04612H5.03788H5.02959H5.02125H5.01285H5.0044H4.9959H4.98734H4.97874H4.97008H4.96138H4.95262H4.94381H4.93496H4.92605H4.9171H4.90809H4.89904H4.88994H4.8808H4.8716H4.86236H4.85308H4.84374H4.83436H4.82494H4.81547H4.80595H4.79639H4.78679H4.77714H4.76745H4.75771H4.74793H4.73811H4.72825H4.71835H4.7084H4.69841H4.68839H4.67832H4.66821H4.65806H4.64787H4.63764H4.62738H4.61707H4.60673H4.59635H4.58593H4.57547H4.56498H4.55445H4.54389H4.53329H4.52265H4.51198H4.50127H4.49053H4.47976H4.46895H4.4581H4.44723H4.43632H4.42538H4.4144H4.4034H4.39236H4.3813H4.3702H4.35907H4.34791H4.33672H4.3255H4.31425H4.30298H4.29167H4.28034H4.26898H4.25759H4.24617H4.23473H4.22326H4.21177H4.20025H4.1887H4.17713H4.16553H4.15391H4.14227H4.1306H4.11891H4.10719H4.09545H4.08369H4.07191H4.06011H4.04828H4.03644H4.02457H4.01268H4.00077H3.98884H3.9769H3.96493H3.95295H3.94094H3.92892H3.91688H3.90483H3.89275H3.88066H3.86855H3.85643H3.84429H3.83214H3.81997H3.80779H3.79559H3.78337H3.77115H3.75891H3.74666H3.73439H3.72211H3.70982H3.69752H3.68521H3.67289H3.66055H3.64821H3.63585H3.62349H3.61111H3.59873H3.58634H3.57394H3.56153H3.54912H3.53669H3.52426H3.51183H3.49938H3.48693H3.47448H3.46202H3.44955H3.43708H3.42461H3.41213H3.39965H3.38716H3.37468H3.36218H3.34969H3.3372H3.3247H3.3122H3.2997H3.2872H3.2747H3.2622H3.2497H3.2372H3.22471H3.21221H3.19971H3.18722H3.17473H3.16224H3.14976H3.13728H3.1248H3.11233H3.09986H3.08739H3.07493H3.06248H3.05003H3.03759H3.02515H3.01272H3.0003H2.98788H2.97548H2.96308H2.95069H2.93831H2.92593H2.91357H2.90122H2.88887H2.87654H2.86422H2.85191H2.83961H2.82732H2.81504H2.80278H2.79053H2.77829H2.76607H2.75386H2.74166H2.72948H2.71731H2.70516H2.69302H2.6809H2.6688H2.65671H2.64464H2.63258H2.62055H2.60853H2.59653H2.58454H2.57258H2.56063H2.54871H2.5368H2.52492H2.51305H2.50121H2.48939H2.47759H2.46581H2.45405H2.44232H2.4306H2.41891H2.40725H2.39561H2.38399H2.3724H2.36083H2.34929H2.33777H2.32628H2.31481H2.30337H2.29196H2.28058H2.26922H2.25789H2.24659H2.23532H2.22407H2.21286H2.20167H2.19052H2.17939H2.1683H2.15723H2.1462H2.1352H2.12423H2.11329H2.10239H2.09152H2.08068H2.06988H2.0591H2.04837H2.03767H2.027H2.01637H2.00577H1.99521H1.98469H1.9742H1.96375H1.95333H1.94296H1.93262H1.92232H1.91206H1.90184H1.89165H1.88151H1.87141H1.86134H1.85132H1.84134H1.8314H1.8215H1.81164H1.80183H1.79206H1.78233H1.77264H1.763H1.7534H1.74385H1.73434H1.72487H1.71545H1.70608H1.69675H1.68747H1.67824H1.66905H1.65991H1.65082H1.64177H1.63277H1.62383H1.61493H1.60608H1.59728H1.58853H1.57983H1.57118H1.56258H1.55404H1.54554H1.5371H1.52871H1.52037H1.51208H1.50385H1.49567H1.48755H1.47948H1.47146H1.4635H1.4556H1.44775H1.43996H1.43222H1.42454H1.41692H1.40935H1.40184H1.39439H1.387H1.37967H1.3724H1.36518H1.35803H1.35093H1.3439H1.33692H1.33001H1.32316H1.31637H1.30964H1.30298H1.29638H1.28984H1.28336H1.27695H1.2706H1.26432H1.2581H1.25194H1.24586H1.23983H1.23388H1.22799H1.22216H1.21641H1.21072H1.2051H1.19954H1.19406H1.18864H1.18329H1.17802H1.17281H1.16767H1.1626H1.15761H1.15268H1.14783H1.14305H1.13834H1.1337H1.12913H1.12464H1.12022H1.11588H1.11161H1.10741H1.10329H1.09925H1.09527H1.09138H1.08756H1.08382H1.08015H1.07657H1.07306H1.06962H1.06627H1.06299H1.05979H1.05667H1.05364H1.05068H1.0478H1.045H1.04228H1.03965H1.03709H1.03462H1.03223H1.02992H1.02769H1.02555H1.02349H1.02152H1.01963H1.01782H1.01632L0.996868 10.4986C0.97441 10.4968 0.941197 10.4938 0.900928 10.4891C0.818699 10.4797 0.714872 10.4642 0.615884 10.4406C0.569627 10.4296 0.531059 10.4183 0.499955 10.4077V10.4003V10.3911V10.3818V10.3723V10.3626V10.3528V10.3429V10.3327V10.3225V10.3121V10.3015V10.2908V10.2799V10.2689V10.2577V10.2464V10.235V10.2234V10.2116V10.1997V10.1877V10.1755V10.1632V10.1507V10.1381V10.1253V10.1124V10.0994V10.0862V10.0729V10.0595V10.0459V10.0322V10.0183V10.0043V9.99021V9.97596V9.96157V9.94705V9.93239V9.91761V9.90269V9.88765V9.87248V9.85718V9.84175V9.8262V9.81052V9.79471V9.77878V9.76273V9.74655V9.73025V9.71383V9.69729V9.68062V9.66384V9.64694V9.62992V9.61278V9.59552V9.57815V9.56066V9.54306V9.52534V9.50751V9.48957V9.47151V9.45334V9.43506V9.41667V9.39818V9.37957V9.36085V9.34203V9.3231V9.30406V9.28492V9.26567V9.24632V9.22686V9.20731V9.18765V9.16788V9.14802V9.12806V9.108V9.08784V9.06758V9.04722V9.02677V9.00622V8.98558V8.96484V8.94401V8.92309V8.90207V8.88096V8.85976V8.83846V8.81708V8.79561V8.77405V8.7524V8.73067V8.70885V8.68694V8.66495V8.64287V8.62071V8.59847V8.57615V8.55374V8.53125V8.50868V8.48603V8.46331V8.4405V8.41762V8.39466V8.37162V8.34851V8.32532V8.30206V8.27873V8.25532V8.23184V8.20829V8.18467V8.16098V8.13722V8.11339V8.08949V8.06552V8.04149V8.01739V7.99323V7.969V7.94471V7.92035V7.89593V7.87145V7.84691V7.82231V7.79765V7.77292V7.74814V7.72331V7.69841V7.67346V7.64845V7.62339V7.59827V7.5731V7.54788V7.5226V7.49727V7.47189V7.44647V7.42099V7.39546V7.36988V7.34426V7.31859V7.29287V7.26711V7.2413V7.21545V7.18955V7.16361V7.13763V7.11161V7.08554V7.05944V7.0333V7.00711V6.9809V6.95464V6.92834V6.90201V6.87565V6.84925V6.82281V6.79634V6.76984V6.74331V6.71675V6.69015V6.66353V6.63688V6.61019V6.58348V6.55675V6.52998V6.50319V6.47638V6.44954V6.42267V6.39579V6.36888V6.34195V6.315V6.28802V6.26103V6.23402V6.20699V6.17994V6.15288V6.1258V6.0987V6.07159V6.04447V6.01733V5.99017V5.96301V5.93583V5.90865V5.88145V5.85424V5.82703V5.7998V5.77257V5.74534V5.71809V5.69084V5.66359V5.63633V5.60907V5.5818V5.55454V5.52727V5.5V5.47273V5.44546V5.4182V5.39093V5.36367V5.33641V5.30916V5.28191V5.25467V5.22743V5.2002V5.17297V5.14576V5.11855V5.09135V5.06417V5.03699V5.00983V4.98267V4.95554V4.92841V4.9013V4.8742V4.84712V4.82006V4.79301V4.76598V4.73897V4.71198V4.68501V4.65805V4.63112V4.60421V4.57733V4.55046V4.52362V4.49681V4.47002V4.44325V4.41652V4.38981V4.36312V4.33647V4.30985V4.28325V4.25669V4.23016V4.20366V4.17719V4.15075V4.12435V4.09799V4.07166V4.04536V4.01911V3.99289V3.9667V3.94056V3.91446V3.88839V3.86237V3.83639V3.81045V3.78456V3.7587V3.7329V3.70713V3.68141V3.65574V3.63012V3.60454V3.57901V3.55353V3.52811V3.50273V3.4774V3.45212V3.4269V3.40173V3.37661V3.35155V3.32654V3.30159V3.27669V3.25186V3.22708V3.20235V3.17769V3.15309V3.12855V3.10407V3.07965V3.05529V3.031V3.00677V2.98261V2.95851V2.93448V2.91051V2.88662V2.86279V2.83902V2.81533V2.79171V2.76816V2.74468V2.72127V2.69794V2.67468V2.65149V2.62838V2.60534V2.58238V2.5595V2.53669V2.51397V2.49132V2.46875V2.44626V2.42385V2.40153V2.37929V2.35713V2.33505V2.31306V2.29115V2.26933V2.2476V2.22595V2.20439V2.18292V2.16154V2.14024V2.11904V2.09793V2.07692V2.05599V2.03516V2.01442V1.99378V1.97323V1.95278V1.93242V1.91216V1.892V1.87194V1.85198V1.83212V1.81235V1.79269V1.77314V1.75368V1.73433V1.71508V1.69594V1.6769V1.65797V1.63915V1.62043V1.60183V1.58333V1.56494V1.54666V1.52849V1.51043V1.49249V1.47466V1.45694V1.43934V1.42185V1.40448V1.38722V1.37008V1.35306V1.33616V1.31938V1.30271V1.28617V1.26975V1.25345V1.23727V1.22122V1.20529V1.18948V1.1738V1.15825V1.14282V1.12752V1.11235V1.09731V1.08239V1.06761V1.05295V1.03843V1.02404V1.00979V0.995662V0.981673V0.967818V0.954099V0.940516V0.927069V0.913761V0.90059V0.887559V0.874667V0.861915V0.849304V0.836835V0.824508V0.812324V0.800284V0.788388V0.776637V0.765032V0.753574V0.742262V0.731098V0.720082V0.709216V0.698499V0.687933V0.677518V0.667255V0.657145V0.647187V0.637384V0.627735V0.618241V0.608903V0.599722V0.590698V0.581832V0.573124V0.564576V0.557259C0.503539 0.554976 0.507257 0.552654 0.511109 0.550295C0.541876 0.53145 0.574606 0.514261 0.604131 0.5L0.673784 0.5L1.14059 0.500001L2.62498 0.500002L5.4207 0.5C5.46031 0.52205 5.51788 0.558187 5.59482 0.611578C5.76312 0.728365 5.98746 0.902011 6.25289 1.1201C6.78169 1.55458 7.4457 2.14238 8.09761 2.74654C8.74946 3.35064 9.38266 3.96501 9.85042 4.45166C10.0853 4.696 10.2722 4.90165 10.3977 5.05454C10.4433 5.11012 10.4768 5.15386 10.5 5.1865C10.5 5.2927 10.5 5.37557 10.5 5.44893C10.5 5.57517 10.5 5.67323 10.5 5.81342C10.4768 5.84608 10.4433 5.88984 10.3976 5.94545C10.2721 6.09834 10.0852 6.304 9.85037 6.54834C9.3826 7.03499 8.7494 7.64936 8.09756 8.25346C7.44566 8.85762 6.78165 9.44543 6.25287 9.8799C5.98744 10.098 5.76311 10.2716 5.59481 10.3884Z" stroke="white" stroke-opacity="0.8"/>
</svg>
