<svg width="11" height="11" viewBox="0 0 11 11" fill="none" xmlns="http://www.w3.org/2000/svg">
<path d="M0.499955 10.4077V0.557259C0.503539 0.554976 0.507257 0.552654 0.511109 0.550295C0.541877 0.53145 0.574606 0.514261 0.604131 0.5L5.4207 0.5C5.46031 0.52205 5.51788 0.558187 5.59482 0.611578C5.76312 0.728365 5.98746 0.902011 6.25289 1.1201C6.78169 1.55458 7.4457 2.14238 8.09761 2.74654C8.74946 3.35064 9.38266 3.96501 9.85042 4.45166C10.0853 4.696 10.2722 4.90165 10.3977 5.05454C10.4433 5.11012 10.4768 5.15386 10.5 5.1865C10.5 5.2927 10.5 5.37557 10.5 5.44893C10.5 5.57517 10.5 5.67323 10.5 5.81342C10.4768 5.84608 10.4433 5.88984 10.3976 5.94545C10.2721 6.09834 10.0852 6.304 9.85037 6.54834C9.3826 7.03499 8.7494 7.64936 8.09756 8.25346C7.44566 8.85762 6.78165 9.44543 6.25287 9.8799C5.98744 10.098 5.76311 10.2716 5.59481 10.3884C5.51788 10.4418 5.46031 10.478 5.4207 10.5H1.01632L0.996868 10.4986C0.97441 10.4968 0.941197 10.4938 0.900928 10.4891C0.818699 10.4797 0.714872 10.4642 0.615884 10.4406C0.569627 10.4296 0.531059 10.4183 0.499955 10.4077Z" stroke="white"/>
</svg>
