<svg width="11" height="11" viewBox="0 0 11 11" fill="none" xmlns="http://www.w3.org/2000/svg">
<path d="M0 6V5.14298C0.41634 5.05338 0.826507 4.92156 1.22667 4.74875C1.35243 4.67079 1.45868 4.54906 1.53333 4.39738C1.62985 4.21249 1.69149 4.00121 1.71333 3.78033C1.74553 3.46501 1.75891 3.14698 1.75333 2.82904C1.73743 2.30375 1.76649 1.77782 1.84 1.26069C1.88655 0.988539 1.99573 0.740681 2.15333 0.549369C2.34649 0.341603 2.57481 0.194847 2.82 0.120861C3.12408 0.0336677 3.43517 -0.00660696 3.74667 0.000880804H4V0.857896C3.79968 0.872276 3.60687 0.960832 3.44481 1.11289C3.28276 1.26495 3.15838 1.47403 3.08667 1.71491C3.02873 1.87252 3.00347 2.0467 3.01333 2.22055C3.01333 2.46052 3.01333 2.92331 2.97333 3.60035C2.96389 3.91763 2.92129 4.23184 2.84667 4.5345C2.79186 4.75727 2.70351 4.96402 2.58667 5.14298C2.41769 5.457 2.22081 5.74462 2 6" fill="white"/>
<path d="M2 6C2.22482 6.2245 2.42197 6.47882 2.58667 6.75677C2.70063 6.89998 2.78879 7.06459 2.84667 7.24225C2.92129 7.4944 2.96389 7.75613 2.97333 8.02043C3 8.58679 3.01333 8.97232 3.01333 9.177C3.00407 9.32179 3.0293 9.46672 3.08667 9.59823C3.16375 9.79256 3.29022 9.95983 3.45168 10.081C3.61315 10.2021 3.80312 10.2723 4 10.2836V10.9975H3.74667C3.43347 11.009 3.12013 10.9803 2.81333 10.9119C2.56919 10.8472 2.34149 10.7252 2.14667 10.5549C1.99034 10.3945 1.8814 10.1884 1.83333 9.96233C1.76051 9.53147 1.73145 9.0934 1.74667 8.65583C1.75343 8.38618 1.74005 8.11645 1.70667 7.84908C1.68482 7.6651 1.62319 7.48905 1.52667 7.33506C1.45201 7.2087 1.34577 7.10729 1.22 7.04234C0.822013 6.89875 0.414087 6.78894 0 6.71393V6" fill="white"/>
<path d="M9 6C8.7792 5.74471 8.58233 5.45719 8.41333 5.14328C8.298 4.96947 8.20973 4.76878 8.15333 4.55214C8.07873 4.24958 8.03613 3.93549 8.02667 3.61831C8.02667 2.9415 7.98667 2.47888 7.98667 2.239C7.99887 2.05951 7.9736 1.87908 7.91333 1.7164C7.8416 1.47559 7.71727 1.2666 7.55519 1.11458C7.39313 0.962573 7.20032 0.874048 7 0.859681V0.00295678H7.25333C7.56653 -0.010839 7.87987 0.0236766 8.18667 0.105767C8.43187 0.17972 8.6602 0.326424 8.85333 0.534127C9.01093 0.725373 9.12013 0.973136 9.16667 1.2452C9.2402 1.76214 9.26927 2.28789 9.25333 2.813C9.24707 3.13654 9.26047 3.46022 9.29333 3.78109C9.3152 4.0019 9.3768 4.21311 9.47333 4.39793C9.548 4.54956 9.6542 4.67125 9.78 4.74919C10.178 4.92149 10.5859 5.05326 11 5.14328V6" fill="white"/>
<path d="M11 6V6.71393C10.5837 6.78858 10.1735 6.89839 9.77333 7.04234C9.64753 7.10729 9.54133 7.2087 9.46667 7.33506C9.37013 7.48905 9.30853 7.6651 9.28667 7.84908C9.25327 8.11645 9.23993 8.38618 9.24667 8.65583C9.26187 9.0934 9.2328 9.53147 9.16 9.96233C9.11193 10.1884 9.003 10.3945 8.84667 10.5549C8.65187 10.7252 8.42413 10.8472 8.18 10.9119C7.8732 10.9803 7.55986 11.009 7.24667 10.9975H7V10.2836C7.19987 10.2699 7.39194 10.1954 7.55371 10.069C7.71547 9.94256 7.8402 9.76936 7.91333 9.56967C7.97067 9.43816 7.99593 9.29323 7.98667 9.14845C7.98667 8.93905 8 8.55352 8.02667 7.99187C8.03613 7.72757 8.07873 7.46584 8.15333 7.21369C8.2112 7.03603 8.2994 6.87142 8.41333 6.72821C8.57987 6.4603 8.77693 6.21567 9 6" fill="white"/>
</svg>
