<svg width="16" height="12" viewBox="0 0 16 12" fill="none" xmlns="http://www.w3.org/2000/svg">
<path fill-rule="evenodd" clip-rule="evenodd" d="M7.49618 8.51615e-08C8.20491 -9.03617e-05 8.90366 0.16711 9.53559 0.488003C10.1675 0.808896 10.7148 1.27442 11.1329 1.84671C11.551 2.41901 11.8281 3.08191 11.9418 3.78151C12.0554 4.48111 12.0023 5.19765 11.7868 5.87286C11.5712 6.54806 11.1994 7.16286 10.7015 7.66726C10.2036 8.17166 9.59369 8.55141 8.92136 8.77563C8.24903 8.99985 7.53326 9.0622 6.83229 8.95762C6.13132 8.85304 5.46492 8.58448 4.8873 8.17378L1.27195 11.7893C1.1304 11.926 0.940809 12.0017 0.744019 12C0.54723 11.9983 0.358985 11.9193 0.219829 11.7802C0.0806723 11.641 0.00173823 11.4527 2.81811e-05 11.2559C-0.00168186 11.0591 0.0739684 10.8695 0.210685 10.728L3.82529 7.11321C3.34623 6.43947 3.06187 5.64685 3.00336 4.82221C2.94485 3.99757 3.11445 3.17274 3.49357 2.4381C3.8727 1.70345 4.44672 1.08735 5.15273 0.657297C5.85875 0.227245 6.66951 -0.000160662 7.49618 8.51615e-08V8.51615e-08ZM10.4983 4.50346C10.4983 3.7072 10.182 2.94355 9.61903 2.38051C9.05602 1.81747 8.29241 1.50115 7.49618 1.50115C6.69996 1.50115 5.93635 1.81747 5.37333 2.38051C4.81032 2.94355 4.49402 3.7072 4.49402 4.50346C4.49402 5.29972 4.81032 6.06337 5.37333 6.62641C5.93635 7.18945 6.69996 7.50576 7.49618 7.50576C8.29241 7.50576 9.05602 7.18945 9.61903 6.62641C10.182 6.06337 10.4983 5.29972 10.4983 4.50346Z" fill="#4380DB"/>
<circle cx="7.5" cy="4.5" r="3.5" fill="#7EA9E7" fill-opacity="0.5"/>
<path d="M10.5 12L9.75761 11.3333L9.01531 10.6667L9 10L12 10L11.9845 10.6667L11.2422 11.3333L10.5 12Z" fill="#4380DB"/>
</svg>
