<svg width="16" height="16" viewBox="0 0 16 16" fill="none" xmlns="http://www.w3.org/2000/svg">
<path d="M14 5H12V10C12 10.5523 12.4477 11 13 11C13.5523 11 14 10.5523 14 10V5Z" fill="white"/>
<path d="M4 5H2V10C2 10.5523 2.44772 11 3 11C3.55228 11 4 10.5523 4 10V5Z" fill="white"/>
<path d="M10.9997 5V6V7V12V15C10.9997 15.5523 10.552 16 9.99967 16C9.44739 16 8.99967 15.5523 8.99967 15V12H6.99967V15C6.99967 15.5523 6.55196 16 5.99967 16C5.44739 16 4.99967 15.5523 4.99967 15V12V7V5H10.9997Z" fill="white"/>
<circle cx="8" cy="2" r="2" fill="white"/>
</svg>
