<svg width="16" height="16" viewBox="0 0 16 16" fill="none" xmlns="http://www.w3.org/2000/svg">
<path d="M5.24537e-07 10L1 10L2 16L6 16L6 14L4 14L3 8L6.99382e-07 8L5.24537e-07 10Z" fill="white"/>
<path d="M8.74228e-07 6L1 6L2 -3.49691e-07L6 0L6 2L4 2L3 8L6.99382e-07 8L8.74228e-07 6Z" fill="white"/>
<path d="M16 16L12 16L12 12L16 12L16 16Z" fill="white"/>
<path d="M16 16L12 16L12 12L16 12L16 16Z" fill="white"/>
<path d="M16 10L12 10L12 6L16 6L16 10Z" fill="white"/>
<path d="M16 10L12 10L12 6L16 6L16 10Z" fill="white"/>
<path d="M16 4L12 4L12 6.03983e-07L16 9.53674e-07L16 4Z" fill="white"/>
<path d="M16 4L12 4L12 6.03983e-07L16 9.53674e-07L16 4Z" fill="white"/>
</svg>
